# xmcd
#
# Track frame offsets: 
#        150
#        36855
#        62274
#        87793
#        104610
#        124687
#        164787
#        174916
#        208695
#        230482
#        246787
#        266386
#        281074
#
# Disc length: 3988 seconds
#
# Revision: 3
# Processed by: cddbd v1.5.2PL0 Copyright (c) Steve Scherf et al.
# Submitted via: ExactAudioCopy v0.95b4
#
DISCID=b20f920d
DTITLE=Klaus Doldinger - Early Doldinger - The Complete Philips Sessio
DTITLE=ns-CD2
DYEAR=2006
DGENRE=Jazz
TTITLE0=Waltz Of The Jive Cats (live)
TTITLE1=Blue Note Samba (live)
TTITLE2=Smoke Gets In Your Eyes (live)
TTITLE3=Groovin' In Berlin (live)
TTITLE4=Minor Kick (live)
TTITLE5=Careless Love (live)
TTITLE6=Ack, Värmeland du sköna (live)
TTITLE7=Two Getting Together (live)
TTITLE8=Fiesta
TTITLE9=Viva Brasilia
TTITLE10=Insensatez
TTITLE11=Subo
TTITLE12=Malaguena
EXTD=YEAR: 2006
EXTT0=
EXTT1=
EXTT2=
EXTT3=
EXTT4=
EXTT5=
EXTT6=
EXTT7=
EXTT8=
EXTT9=
EXTT10=
EXTT11=
EXTT12=
PLAYORDER=
